<svg width="14" height="15" viewBox="0 0 14 15" className="fill-yellow-500 " fill="currentColor" xmlns="http://www.w3.org/2000/svg">
<path fill-rule="evenodd" clip-rule="evenodd" d="M10.956 7.00643L7.12955 9.20258L3.3031 7.00643L7.12955 0.840698L10.956 7.00643ZM-5.00898 19.0983C-4.94472 19.0983 -4.89083 19.046 -4.89083 18.9836C-4.89083 18.267 -5.44842 17.6007 -6.21744 17.6027C-6.98647 17.6027 -7.53577 18.271 -7.53577 18.9876C-7.53577 19.7042 -6.98854 20.3725 -6.21744 20.3725C-5.76764 20.3725 -5.30954 20.1813 -5.07945 19.7908C-5.06909 19.7707 -5.05873 19.7505 -5.06494 19.7143C-5.07116 19.6781 -5.09604 19.6479 -5.1292 19.6338C-5.19139 19.6076 -5.24114 19.6358 -5.2743 19.6801C-5.50439 19.9981 -5.80702 20.1491 -6.21744 20.1491C-6.81649 20.1491 -7.24142 19.6479 -7.29946 19.0983H-5.00898ZM-6.21744 17.8221C-5.61839 17.8221 -5.18517 18.3233 -5.13542 18.8729H-7.29946C-7.24142 18.3233 -6.81649 17.8221 -6.21744 17.8221ZM-1.99922 17.7678C-1.99922 17.7134 -2.0469 17.6571 -2.11323 17.6571H-2.72471V16.7975C-2.72471 16.7271 -2.78482 16.6767 -2.86152 16.6888C-2.91749 16.6969 -2.9548 16.7472 -2.9548 16.8015V17.6571H-3.54556C-3.60981 17.6571 -3.65956 17.7114 -3.65956 17.7678C-3.65956 17.8302 -3.61189 17.8785 -3.54556 17.8785H-2.9548V20.2175C-2.9548 20.2719 -2.90712 20.3283 -2.84079 20.3283C-2.77653 20.3283 -2.72678 20.2739 -2.72678 20.2175V17.8785H-2.11323C-2.04897 17.8785 -1.99922 17.8322 -1.99922 17.7678ZM1.63239 20.2035V18.7863C1.63239 18.1824 1.24684 17.6087 0.575245 17.6087C0.166896 17.6087 -0.185487 17.8402 -0.382407 18.1824V15.5495C-0.382407 15.4951 -0.430082 15.4388 -0.496413 15.4388C-0.56067 15.4388 -0.610419 15.4931 -0.610419 15.5495V20.2035C-0.610419 20.2739 -0.550305 20.3242 -0.47361 20.3122C-0.417644 20.3041 -0.380333 20.2538 -0.380333 20.1994V19.1366C-0.380333 19.1333 -0.381756 19.1192 -0.383422 19.1028C-0.38578 19.0795 -0.388625 19.0514 -0.388625 19.042C-0.430082 18.428 -0.127448 17.8322 0.577317 17.8322C1.12662 17.8322 1.40438 18.3093 1.40438 18.7863V20.2035C1.40438 20.2659 1.45205 20.3142 1.51838 20.3142C1.57435 20.3142 1.63239 20.2679 1.63239 20.2035ZM5.61846 19.0983C5.68272 19.0983 5.73661 19.046 5.73661 18.9836C5.73454 18.267 5.17902 17.6007 4.40999 17.6027C3.64097 17.6027 3.09167 18.271 3.09167 18.9876C3.09167 19.7042 3.6389 20.3725 4.40999 20.3725C4.8598 20.3725 5.3179 20.1813 5.54798 19.7908C5.55834 19.7707 5.56871 19.7505 5.56249 19.7143C5.55627 19.6781 5.5314 19.6479 5.49823 19.6338C5.43605 19.6076 5.3863 19.6358 5.35313 19.6801C5.12305 19.9981 4.82041 20.1491 4.40999 20.1491C3.81094 20.1491 3.38601 19.6479 3.32797 19.0983H5.61846ZM4.40792 17.8221C5.00697 17.8221 5.44019 18.3233 5.48994 18.8729H3.3259C3.38394 18.3233 3.80887 17.8221 4.40792 17.8221ZM8.44166 17.8785C8.50592 17.8704 8.54737 17.8322 8.54737 17.7597C8.54737 17.6953 8.48104 17.6571 8.42508 17.655C8.03331 17.655 7.65606 17.9489 7.46743 18.2589V17.7658C7.46743 17.6953 7.40732 17.645 7.33062 17.6571C7.27465 17.6651 7.23734 17.7154 7.23734 17.7698V20.1954C7.23734 20.2659 7.29745 20.3162 7.37415 20.3041C7.43012 20.2961 7.46743 20.2457 7.46743 20.1914V19.1285C7.46743 18.5065 7.77006 17.9731 8.44166 17.8785ZM12.1894 19.0983C12.2536 19.0983 12.3075 19.046 12.3075 18.9836C12.3054 18.267 11.7499 17.6007 10.9809 17.6027C10.2119 17.6027 9.66256 18.271 9.66256 18.9876C9.66256 19.7042 10.2098 20.3725 10.9809 20.3725C11.4307 20.3725 11.8888 20.1813 12.1189 19.7908C12.1292 19.7707 12.1396 19.7505 12.1334 19.7143C12.1272 19.6781 12.1023 19.6479 12.0691 19.6338C12.0069 19.6076 11.9572 19.6358 11.924 19.6801C11.6939 19.9981 11.3913 20.1491 10.9809 20.1491C10.3818 20.1491 9.95691 19.6479 9.89887 19.0983H12.1894ZM10.9788 17.8221C11.5779 17.8221 12.0111 18.3233 12.0608 18.8729H9.89679C9.95483 18.3233 10.3798 17.8221 10.9788 17.8221ZM16.0034 20.2175V17.7879C16.0034 17.7376 15.9702 17.6913 15.9205 17.6752C15.8396 17.653 15.7733 17.7174 15.7733 17.7819V18.6897C15.7733 19.4607 15.593 20.1612 14.8219 20.1612C14.2726 20.1612 13.9948 19.6841 13.9948 19.207V17.7819C13.9948 17.7275 13.9471 17.6711 13.8808 17.6711C13.8165 17.6711 13.7668 17.7255 13.7668 17.7819V19.207C13.7668 19.8109 14.144 20.3846 14.8239 20.3846C15.2509 20.3846 15.5867 20.1229 15.7754 19.7566V20.2175C15.7754 20.28 15.823 20.3283 15.8894 20.3283C15.9453 20.3283 16.0034 20.282 16.0034 20.2175ZM21.7949 20.2035V18.7783C21.7949 18.1744 21.4093 17.6087 20.7398 17.6067C20.2651 17.6067 19.8962 17.9006 19.7075 18.3153C19.5604 17.8926 19.1997 17.6067 18.7333 17.6067C18.3249 17.6067 17.9726 17.8302 17.7756 18.1724V17.7658C17.7756 17.6953 17.7155 17.645 17.6388 17.6571C17.5829 17.6651 17.5456 17.7154 17.5456 17.7698V20.2035C17.5456 20.2739 17.6057 20.3242 17.6824 20.3122C17.7383 20.3041 17.7756 20.2538 17.7756 20.1994V19.1285C17.7813 19.123 17.7792 19.1062 17.7774 19.091C17.7765 19.084 17.7756 19.0773 17.7756 19.0722C17.7508 18.3636 18.0368 17.8302 18.7333 17.8302C19.2826 17.8302 19.5604 18.2992 19.5604 18.7763V20.2014C19.5604 20.2638 19.608 20.3122 19.6744 20.3122C19.7303 20.3122 19.7884 20.2659 19.7884 20.2014V19.1044C19.7884 18.5488 20.0516 17.8322 20.7398 17.8322C21.2891 17.8322 21.5669 18.3012 21.5669 18.7783V20.2035C21.5669 20.2659 21.6145 20.3142 21.6809 20.3142C21.7368 20.3142 21.7949 20.2679 21.7949 20.2035ZM10.9582 7.7112L7.12967 12.9469L3.30321 7.7112L7.12967 9.90534L10.9582 7.7112Z" />
</svg>
