<svg width="13" height="14" viewBox="0 0 13 14" fill="none" xmlns="http://www.w3.org/2000/svg">
<path d="M6.14981 13.1C2.76697 13.1 0.0248108 10.3578 0.0248108 6.97498C0.0248108 3.59214 2.76697 0.849976 6.14981 0.849976C9.53265 0.849976 12.2748 3.59214 12.2748 6.97498C12.2748 10.3578 9.53265 13.1 6.14981 13.1ZM6.14981 11.875C7.44937 11.875 8.69571 11.3587 9.61463 10.4398C10.5336 9.52087 11.0498 8.27454 11.0498 6.97498C11.0498 5.67542 10.5336 4.42908 9.61463 3.51015C8.69571 2.59122 7.44937 2.07498 6.14981 2.07498C4.85025 2.07498 3.60392 2.59122 2.68499 3.51015C1.76606 4.42908 1.24981 5.67542 1.24981 6.97498C1.24981 8.27454 1.76606 9.52087 2.68499 10.4398C3.60392 11.3587 4.85025 11.875 6.14981 11.875ZM4.00606 8.19998H7.37481C7.45603 8.19998 7.53393 8.16771 7.59136 8.11028C7.6488 8.05284 7.68106 7.97495 7.68106 7.89373C7.68106 7.8125 7.6488 7.73461 7.59136 7.67717C7.53393 7.61974 7.45603 7.58748 7.37481 7.58748H4.92481C4.5187 7.58748 4.12922 7.42615 3.84205 7.13898C3.55489 6.85182 3.39356 6.46234 3.39356 6.05623C3.39356 5.65011 3.55489 5.26063 3.84205 4.97347C4.12922 4.6863 4.5187 4.52498 4.92481 4.52498H5.53731V3.29998H6.76231V4.52498H8.29356V5.74998H4.92481C4.84359 5.74998 4.76569 5.78224 4.70826 5.83967C4.65083 5.89711 4.61856 5.975 4.61856 6.05623C4.61856 6.13745 4.65083 6.21534 4.70826 6.27278C4.76569 6.33021 4.84359 6.36248 4.92481 6.36248H7.37481C7.78092 6.36248 8.1704 6.5238 8.45757 6.81097C8.74473 7.09813 8.90606 7.48761 8.90606 7.89373C8.90606 8.29984 8.74473 8.68932 8.45757 8.97648C8.1704 9.26365 7.78092 9.42498 7.37481 9.42498H6.76231V10.65H5.53731V9.42498H4.00606V8.19998Z" fill="white"/>
</svg>
