<svg width="14" height="13" viewBox="0 0 14 13" fill="none" xmlns="http://www.w3.org/2000/svg">
<path d="M11.3625 12.1375H2.78746C2.62502 12.1375 2.46923 12.073 2.35436 11.9581C2.23949 11.8433 2.17496 11.6875 2.17496 11.525V6.01252H0.337463L6.66275 0.262374C6.77552 0.159767 6.9225 0.102905 7.07496 0.102905C7.22743 0.102905 7.37441 0.159767 7.48718 0.262374L13.8125 6.01252H11.975V11.525C11.975 11.6875 11.9104 11.8433 11.7956 11.9581C11.6807 12.073 11.5249 12.1375 11.3625 12.1375ZM3.39996 10.9125H10.75V4.88369L7.07496 1.54311L3.39996 4.88369V10.9125ZM7.07496 8.46252C6.66885 8.46252 6.27937 8.3012 5.99221 8.01403C5.70504 7.72687 5.54371 7.33739 5.54371 6.93127C5.54371 6.52516 5.70504 6.13568 5.99221 5.84852C6.27937 5.56135 6.66885 5.40002 7.07496 5.40002C7.48108 5.40002 7.87056 5.56135 8.15772 5.84852C8.44489 6.13568 8.60621 6.52516 8.60621 6.93127C8.60621 7.33739 8.44489 7.72687 8.15772 8.01403C7.87056 8.3012 7.48108 8.46252 7.07496 8.46252Z" fill="#959595"/>
</svg>
