<svg width="10" height="9" viewBox="0 0 10 9" fill="none" xmlns="http://www.w3.org/2000/svg">
<path d="M0.187469 1.04683C0.188293 0.928646 0.235575 0.815533 0.3191 0.731924C0.402626 0.648314 0.515691 0.600918 0.633869 0.599976H8.74107C8.98767 0.599976 9.18747 0.800226 9.18747 1.04683V8.25312C9.18665 8.3713 9.13936 8.48442 9.05584 8.56803C8.97231 8.65164 8.85925 8.69903 8.74107 8.69998H0.633869C0.515435 8.69986 0.401893 8.65272 0.31819 8.56894C0.234486 8.48515 0.187469 8.37156 0.187469 8.25312V1.04683ZM4.68747 5.99998C4.32943 5.99998 3.98605 5.85774 3.73287 5.60457C3.4797 5.3514 3.33747 5.00802 3.33747 4.64998C3.33747 4.29193 3.4797 3.94855 3.73287 3.69538C3.98605 3.44221 4.32943 3.29998 4.68747 3.29998C5.04551 3.29998 5.38889 3.44221 5.64206 3.69538C5.89524 3.94855 6.03747 4.29193 6.03747 4.64998C6.03747 5.00802 5.89524 5.3514 5.64206 5.60457C5.38889 5.85774 5.04551 5.99998 4.68747 5.99998ZM4.68747 6.89997C5.28421 6.89997 5.8565 6.66292 6.27846 6.24097C6.70042 5.81901 6.93747 5.24671 6.93747 4.64998C6.93747 4.05324 6.70042 3.48094 6.27846 3.05898C5.8565 2.63703 5.28421 2.39998 4.68747 2.39998C4.09073 2.39998 3.51844 2.63703 3.09648 3.05898C2.67452 3.48094 2.43747 4.05324 2.43747 4.64998C2.43747 5.24671 2.67452 5.81901 3.09648 6.24097C3.51844 6.66292 4.09073 6.89997 4.68747 6.89997ZM7.38747 1.49998V2.39998H8.28747V1.49998H7.38747Z" fill="white"/>
</svg>
