<svg width="12" height="14" viewBox="0 0 12 14" fill="none" xmlns="http://www.w3.org/2000/svg">
<path d="M0.770839 10.0875C0.511917 9.63977 0.310646 9.16108 0.171814 8.66284C0.473965 8.50916 0.727715 8.2749 0.904994 7.98596C1.08227 7.69702 1.17617 7.36468 1.1763 7.02569C1.17642 6.68671 1.08278 6.35429 0.905713 6.06523C0.72865 5.77616 0.475075 5.5417 0.173039 5.3878C0.449911 4.38666 0.977086 3.47248 1.7049 2.73139C1.98916 2.91619 2.31901 3.01875 2.65794 3.0277C2.99687 3.03666 3.33167 2.95166 3.62529 2.78212C3.91891 2.61258 4.1599 2.36511 4.32158 2.0671C4.48326 1.76908 4.55934 1.43214 4.54139 1.09356C5.54718 0.833632 6.60259 0.834054 7.60818 1.09479C7.59038 1.43336 7.66661 1.77025 7.82842 2.06818C7.99023 2.36611 8.23131 2.61347 8.52498 2.78288C8.81866 2.95228 9.15348 3.03714 9.49239 3.02805C9.83131 3.01897 10.1611 2.91629 10.4453 2.73139C10.7999 3.09276 11.1147 3.50375 11.3793 3.96251C11.6446 4.42128 11.843 4.89964 11.9784 5.38719C11.6762 5.54087 11.4225 5.77513 11.2452 6.06406C11.0679 6.353 10.974 6.68535 10.9739 7.02433C10.9738 7.36332 11.0674 7.69573 11.2445 7.9848C11.4215 8.27387 11.6751 8.50832 11.9771 8.66223C11.7003 9.66337 11.1731 10.5775 10.4453 11.3186C10.161 11.1338 9.83117 11.0313 9.49224 11.0223C9.15331 11.0134 8.81851 11.0984 8.52489 11.2679C8.23127 11.4374 7.99028 11.6849 7.8286 11.9829C7.66691 12.2809 7.59084 12.6179 7.60879 12.9565C6.603 13.2164 5.54759 13.216 4.542 12.9552C4.55979 12.6167 4.48357 12.2798 4.32176 11.9818C4.15995 11.6839 3.91887 11.4366 3.62519 11.2672C3.33152 11.0977 2.9967 11.0129 2.65778 11.022C2.31887 11.0311 1.98908 11.1337 1.7049 11.3186C1.34291 10.9493 1.02907 10.5356 0.770839 10.0875ZM4.23759 10.2076C4.89029 10.584 5.38103 11.1882 5.61571 11.9042C5.92135 11.933 6.22821 11.9336 6.53385 11.9048C6.76868 11.1887 7.25966 10.5845 7.91259 10.2082C8.56503 9.83068 9.33391 9.70744 10.0717 9.86211C10.2493 9.61221 10.4024 9.34577 10.5298 9.06709C10.0272 8.5057 9.74955 7.77852 9.75009 7.02501C9.75009 6.25326 10.038 5.53235 10.5298 4.98294C10.4015 4.70434 10.2477 4.4382 10.0704 4.18791C9.33315 4.34245 8.56477 4.21944 7.91259 3.84246C7.25989 3.466 6.76915 2.86184 6.53446 2.14584C6.22883 2.11705 5.92196 2.11644 5.61633 2.14523C5.38149 2.86133 4.89052 3.46551 4.23759 3.84185C3.58514 4.21934 2.81627 4.34258 2.07853 4.18791C1.90125 4.43799 1.74786 4.70417 1.62038 4.98294C2.12298 5.54433 2.40063 6.27151 2.40009 7.02501C2.40009 7.79676 2.11221 8.51767 1.62038 9.06709C1.74868 9.34568 1.90246 9.61182 2.07975 9.86211C2.81703 9.70757 3.5854 9.83058 4.23759 10.2076ZM6.07509 8.86251C5.58775 8.86251 5.12038 8.66892 4.77578 8.32432C4.43118 7.97972 4.23759 7.51235 4.23759 7.02501C4.23759 6.53768 4.43118 6.0703 4.77578 5.7257C5.12038 5.38111 5.58775 5.18751 6.07509 5.18751C6.56242 5.18751 7.0298 5.38111 7.3744 5.7257C7.719 6.0703 7.91259 6.53768 7.91259 7.02501C7.91259 7.51235 7.719 7.97972 7.3744 8.32432C7.0298 8.66892 6.56242 8.86251 6.07509 8.86251ZM6.07509 7.63751C6.23753 7.63751 6.39332 7.57298 6.50819 7.45812C6.62306 7.34325 6.68759 7.18746 6.68759 7.02501C6.68759 6.86257 6.62306 6.70678 6.50819 6.59191C6.39332 6.47704 6.23753 6.41251 6.07509 6.41251C5.91264 6.41251 5.75685 6.47704 5.64199 6.59191C5.52712 6.70678 5.46259 6.86257 5.46259 7.02501C5.46259 7.18746 5.52712 7.34325 5.64199 7.45812C5.75685 7.57298 5.91264 7.63751 6.07509 7.63751Z" fill="#959595"/>
</svg>
