<svg width="11" height="10" viewBox="0 0 11 10" fill="none" xmlns="http://www.w3.org/2000/svg">
<g clip-path="url(#clip0_23_658)">
<path d="M3.8133 0.566683H5.6133V1.13335H3.8133V0.566683ZM8.57997 8.56668C8.57997 8.63335 8.54664 8.70002 8.47997 8.76668C8.4133 8.83335 8.34664 8.86668 8.27997 8.86668H7.07997V9.43335H8.27997C8.52441 9.43335 8.72997 9.35002 8.89664 9.18335C9.0633 9.01668 9.14664 8.81113 9.14664 8.56668V7.36668H8.57997V8.56668ZM8.27997 0.566683H7.07997V1.13335H8.27997C8.34664 1.13335 8.4133 1.16668 8.47997 1.23335C8.54664 1.30002 8.57997 1.36668 8.57997 1.43335V2.63335H9.14664V1.43335C9.14664 1.1889 9.0633 0.983349 8.89664 0.816683C8.72997 0.650016 8.52441 0.566683 8.27997 0.566683ZM0.846635 1.43335C0.846635 1.36668 0.879968 1.30002 0.946635 1.23335C1.0133 1.16668 1.07997 1.13335 1.14663 1.13335H2.34664V0.566683H1.14663C0.902191 0.566683 0.696635 0.650016 0.529968 0.816683C0.363302 0.983349 0.279968 1.1889 0.279968 1.43335V2.63335H0.846635V1.43335ZM8.57997 4.10002H9.14664V5.90002H8.57997V4.10002ZM7.07997 4.70002V2.93335C7.07997 2.84446 7.05219 2.77224 6.99664 2.71668C6.94108 2.66113 6.86886 2.63335 6.77997 2.63335H5.0133V3.23335H6.07997L4.5133 4.80002C4.37997 4.73335 4.24664 4.70002 4.1133 4.70002H1.14663C1.05775 4.70002 0.957746 4.72224 0.846635 4.76668V4.10002H0.279968V8.56668C0.279968 8.81113 0.363302 9.01668 0.529968 9.18335C0.696635 9.35002 0.902191 9.43335 1.14663 9.43335H5.6133V8.86668H4.94664C4.99108 8.75557 5.0133 8.65557 5.0133 8.56668V5.60002C5.0133 5.46668 4.97997 5.33335 4.9133 5.20002L6.47997 3.63335V4.70002H7.07997ZM1.14663 8.86668C1.07997 8.86668 1.0133 8.83335 0.946635 8.76668C0.879968 8.70002 0.846635 8.63335 0.846635 8.56668V5.60002C0.846635 5.51113 0.879968 5.43891 0.946635 5.38335C1.0133 5.32779 1.07997 5.30002 1.14663 5.30002H4.1133C4.20219 5.30002 4.27441 5.32779 4.32997 5.38335C4.38552 5.43891 4.4133 5.51113 4.4133 5.60002V8.56668C4.4133 8.63335 4.38552 8.70002 4.32997 8.76668C4.27441 8.83335 4.20219 8.86668 4.1133 8.86668H1.14663Z" fill="#181A20"/>
</g>
<defs>
<clipPath id="clip0_23_658">
<rect width="10" height="10" fill="white" transform="matrix(1 0 0 -1 0.279968 10)"/>
</clipPath>
</defs>
</svg>
