<svg width="14" height="13" viewBox="0 0 14 13" fill="none" xmlns="http://www.w3.org/2000/svg">
<path d="M7.07501 12.8501C3.69217 12.8501 0.950012 10.1079 0.950012 6.7251C0.950012 3.98232 2.7526 1.66095 5.23751 0.880623V2.18157C4.18458 2.60913 3.31291 3.38924 2.77162 4.38848C2.23033 5.38772 2.05305 6.54399 2.27011 7.65949C2.48716 8.775 3.08506 9.78044 3.96153 10.5038C4.838 11.2272 5.93858 11.6235 7.07501 11.6251C8.0512 11.6251 9.00515 11.3336 9.81463 10.788C10.6241 10.2423 11.2522 9.46746 11.6185 8.5626H12.9195C12.1392 11.0475 9.81779 12.8501 7.07501 12.8501ZM13.1694 7.3376H6.46251V0.630723C6.66402 0.61051 6.8686 0.600098 7.07501 0.600098C10.4578 0.600098 13.2 3.34226 13.2 6.7251C13.2 6.93151 13.1896 7.13609 13.1694 7.3376ZM7.68751 1.86307V6.1126H11.937C11.8007 5.03313 11.3091 4.02969 10.5398 3.26033C9.77042 2.49097 8.76698 1.99941 7.68751 1.86307Z" fill="#959595"/>
</svg>
