<svg width="10" height="10" viewBox="0 0 10 10" fill="none" xmlns="http://www.w3.org/2000/svg">
<path d="M6.79997 0.566683H4.1333C3.75553 0.566683 3.41108 0.655571 3.09997 0.833349C2.78886 1.01113 2.53886 1.26113 2.34997 1.58335C2.16108 1.90557 2.06664 2.25557 2.06664 2.63335H1.46664C1.06664 2.63335 0.722192 2.77779 0.433303 3.06668C0.144414 3.35557 -3.05176e-05 3.70002 -3.05176e-05 4.10002V5.00002C-3.05176e-05 5.0889 0.0277473 5.16113 0.0833028 5.21668C0.138858 5.27224 0.211081 5.30002 0.299969 5.30002H4.4333C4.52219 5.30002 4.59441 5.27224 4.64997 5.21668C4.70553 5.16113 4.7333 5.0889 4.7333 5.00002V4.10002C4.7333 3.70002 4.58886 3.35557 4.29997 3.06668C4.01108 2.77779 3.66664 2.63335 3.26664 2.63335H2.66664C2.66664 2.23335 2.81108 1.8889 3.09997 1.60002C3.38886 1.31113 3.7333 1.15557 4.1333 1.13335H6.79997C7.19997 1.15557 7.54441 1.31113 7.8333 1.60002C8.12219 1.8889 8.27775 2.23335 8.29997 2.63335V9.13335H8.86664V2.63335C8.86664 2.25557 8.77775 1.90557 8.59997 1.58335C8.42219 1.26113 8.17219 1.01113 7.84997 0.833349C7.52775 0.655571 7.17775 0.566683 6.79997 0.566683ZM3.2333 3.23335C3.47775 3.23335 3.68886 3.31668 3.86664 3.48335C4.04441 3.65002 4.1333 3.85557 4.1333 4.10002V4.70002H0.566636V4.10002C0.566636 3.85557 0.655525 3.65002 0.833303 3.48335C1.01108 3.31668 1.22219 3.23335 1.46664 3.23335H3.2333ZM0.299969 6.20002H0.866636V8.26668H0.299969V6.20002ZM1.46664 6.20002H2.06664V7.06668H1.46664V6.20002ZM1.46664 7.96668H2.06664V9.13335H1.46664V7.96668ZM2.66664 6.20002H3.2333V7.66668H2.66664V6.20002ZM2.66664 8.26668H3.2333V8.83335H2.66664V8.26668ZM3.8333 6.20002H4.4333V7.06668H3.8333V6.20002ZM3.8333 7.66668H4.4333V9.43335H3.8333V7.66668Z" fill="#181A20"/>
</svg>
