<svg width="11" height="10" viewBox="0 0 11 10" fill="none" xmlns="http://www.w3.org/2000/svg">
<g clip-path="url(#clip0_23_647)">
<path d="M8.86331 5.5667L8.79665 5.53337V2.63337C8.79665 2.23337 8.6522 1.88337 8.36331 1.58337C8.07443 1.28337 7.72998 1.13337 7.32998 1.13337H1.99665C1.59665 1.13337 1.2522 1.28337 0.963314 1.58337C0.674425 1.88337 0.52998 2.23337 0.52998 2.63337V5.53337L0.496647 5.5667C0.318869 5.74448 0.22998 5.95559 0.22998 6.20003V8.5667C0.22998 8.63337 0.257758 8.70003 0.313314 8.7667C0.368869 8.83337 0.441092 8.8667 0.52998 8.8667H1.99665C2.10776 8.8667 2.18554 8.82225 2.22998 8.73337L2.76331 7.9667H6.59665L7.09665 8.73337C7.14109 8.82225 7.21887 8.8667 7.32998 8.8667H8.82998C8.89665 8.8667 8.95776 8.83337 9.01331 8.7667C9.06887 8.70003 9.09665 8.63337 9.09665 8.5667V6.20003C9.09665 5.95559 9.01887 5.74448 8.86331 5.5667ZM1.99665 1.73337H7.32998C7.57443 1.73337 7.78554 1.82226 7.96331 2.00003C8.14109 2.17781 8.22998 2.38892 8.22998 2.63337V4.40003C8.09665 4.22226 7.92443 4.07781 7.71331 3.9667C7.5022 3.85559 7.27443 3.81114 7.02998 3.83337H2.29665C1.87442 3.81114 1.52998 3.94448 1.26331 4.23337L1.09665 4.43337V2.63337C1.09665 2.38892 1.18554 2.17781 1.36331 2.00003C1.54109 1.82226 1.7522 1.73337 1.99665 1.73337ZM7.92998 5.30003H1.39665C1.39665 5.05559 1.48554 4.84448 1.66331 4.6667C1.84109 4.48892 2.0522 4.40003 2.29665 4.40003H7.02998C7.27443 4.40003 7.48554 4.48892 7.66331 4.6667C7.84109 4.84448 7.92998 5.05559 7.92998 5.30003ZM8.52998 8.2667H7.49665L6.99665 7.50003C6.92998 7.41114 6.84109 7.3667 6.72998 7.3667H2.59665C2.48554 7.3667 2.39665 7.41114 2.32998 7.50003L1.82998 8.2667H0.796647V6.20003C0.796647 6.11114 0.82998 6.03892 0.896647 5.98337C0.963314 5.92781 1.02998 5.90003 1.09665 5.90003H8.22998C8.29665 5.90003 8.36331 5.92781 8.42998 5.98337C8.49665 6.03892 8.52998 6.11114 8.52998 6.20003V8.2667Z" fill="#181A20"/>
</g>
<defs>
<clipPath id="clip0_23_647">
<rect width="10" height="10" fill="white" transform="matrix(1 0 0 -1 0.22998 10)"/>
</clipPath>
</defs>
</svg>
