<svg width="14" height="13" viewBox="0 0 14 13" fill="none" xmlns="http://www.w3.org/2000/svg">
<path d="M5.23751 0.1875V1.4125H8.91251V0.1875H10.1375V1.4125H12.5875C12.75 1.4125 12.9057 1.47703 13.0206 1.5919C13.1355 1.70676 13.2 1.86255 13.2 2.025V11.825C13.2 11.9874 13.1355 12.1432 13.0206 12.2581C12.9057 12.373 12.75 12.4375 12.5875 12.4375H1.56251C1.40007 12.4375 1.24428 12.373 1.12941 12.2581C1.01454 12.1432 0.950012 11.9874 0.950012 11.825V2.025C0.950012 1.86255 1.01454 1.70676 1.12941 1.5919C1.24428 1.47703 1.40007 1.4125 1.56251 1.4125H4.01251V0.1875H5.23751ZM11.975 4.475H2.17501V11.2125H11.975V4.475ZM8.93456 5.7833L9.80064 6.64938L6.76876 9.68125L4.60296 7.51545L5.47026 6.64938L6.76937 7.9491L8.93517 5.7833H8.93456Z" fill="#959595"/>
</svg>
