<svg width="13" height="14" viewBox="0 0 13 14" fill="none" xmlns="http://www.w3.org/2000/svg">
<path d="M6.34998 0.974976C9.73281 0.974976 12.475 3.71714 12.475 7.09998C12.475 10.4828 9.73281 13.225 6.34998 13.225C2.96714 13.225 0.224976 10.4828 0.224976 7.09998C0.224976 3.71714 2.96714 0.974976 6.34998 0.974976ZM6.34998 2.81248C3.98205 2.81248 2.06248 4.73205 2.06248 7.09998C2.06248 8.23433 2.50348 9.26639 3.22255 10.0332L3.3181 10.1312L4.18418 9.26578C3.63048 8.71085 3.28748 7.94523 3.28748 7.09998C3.28748 5.40886 4.65886 4.03748 6.34998 4.03748C6.62438 4.03748 6.8902 4.07361 7.14316 4.1416L8.1005 3.18488C7.56579 2.946 6.9735 2.81248 6.34998 2.81248ZM10.2651 5.35006L9.30896 6.30679C9.37634 6.55975 9.41248 6.82558 9.41248 7.09998C9.41248 7.94523 9.06948 8.71085 8.51578 9.26578L9.38185 10.1319C10.1573 9.35581 10.6375 8.28394 10.6375 7.09998C10.6375 6.47645 10.5046 5.88416 10.2651 5.35006ZM8.9482 3.63506L6.66664 5.91601C6.56558 5.88906 6.45961 5.87498 6.34998 5.87498C5.67316 5.87498 5.12498 6.42316 5.12498 7.09998C5.12498 7.77679 5.67316 8.32498 6.34998 8.32498C7.02679 8.32498 7.57498 7.77679 7.57498 7.09998C7.57498 6.99034 7.56089 6.88438 7.53394 6.78331L9.81489 4.50114L8.94881 3.63506H8.9482Z" fill="#7942FB"/>
</svg>
