<svg width="16" height="15" viewBox="0 0 16 15" fill="none" xmlns="http://www.w3.org/2000/svg">
<g clip-path="url(#clip0_1_14)">
<path d="M4.78724 2.50669L5.48978 3.51058C4.63606 4.10824 3.99513 4.96251 3.66008 5.94931C3.32503 6.9361 3.31332 8.00402 3.62665 8.99793C3.93997 9.99183 4.56202 10.86 5.40242 11.4762C6.24282 12.0924 7.2578 12.4247 8.29993 12.4247C9.34205 12.4247 10.357 12.0924 11.1974 11.4762C12.0378 10.86 12.6599 9.99183 12.9732 8.99793C13.2865 8.00402 13.2748 6.9361 12.9398 5.94931C12.6047 4.96251 11.9638 4.10824 11.1101 3.51058L11.8126 2.50669C12.6199 3.07106 13.2789 3.82201 13.7337 4.69568C14.1885 5.56936 14.4256 6.53994 14.4249 7.5249C14.4249 10.9077 11.6828 13.6499 8.29993 13.6499C4.91709 13.6499 2.17493 10.9077 2.17493 7.5249C2.17422 6.53994 2.41135 5.56936 2.86615 4.69568C3.32096 3.82201 3.98 3.07106 4.78724 2.50669ZM7.68743 7.5249V1.3999H8.91243V7.5249H7.68743Z" fill="#7942FB"/>
</g>
<defs>
<clipPath id="clip0_1_14">
<rect width="14.7" height="14.7" fill="white" transform="translate(0.950012 0.175049)"/>
</clipPath>
</defs>
</svg>
