<svg width="14" height="13" viewBox="0 0 14 13" fill="none" xmlns="http://www.w3.org/2000/svg">
<path d="M4.01251 2.5374V0.699902C4.01251 0.537457 4.07704 0.381665 4.19191 0.266799C4.30678 0.151933 4.46257 0.0874023 4.62501 0.0874023H9.52501C9.68746 0.0874023 9.84325 0.151933 9.95812 0.266799C10.073 0.381665 10.1375 0.537457 10.1375 0.699902V2.5374H12.5875C12.75 2.5374 12.9057 2.60193 13.0206 2.7168C13.1355 2.83167 13.2 2.98746 13.2 3.1499V11.7249C13.2 11.8873 13.1355 12.0431 13.0206 12.158C12.9057 12.2729 12.75 12.3374 12.5875 12.3374H1.56251C1.40007 12.3374 1.24428 12.2729 1.12941 12.158C1.01454 12.0431 0.950012 11.8873 0.950012 11.7249V3.1499C0.950012 2.98746 1.01454 2.83167 1.12941 2.7168C1.24428 2.60193 1.40007 2.5374 1.56251 2.5374H4.01251ZM5.23751 7.4374H2.17501V11.1124H11.975V7.4374H8.91251V9.2749H5.23751V7.4374ZM11.975 3.7624H2.17501V6.2124H5.23751V4.9874H8.91251V6.2124H11.975V3.7624ZM6.46251 6.2124V8.0499H7.68751V6.2124H6.46251ZM5.23751 1.3124V2.5374H8.91251V1.3124H5.23751Z" fill="#959595"/>
</svg>
