<svg width="11" height="3" viewBox="0 0 11 3" fill="none" xmlns="http://www.w3.org/2000/svg">
<path d="M1.6125 0.100098C0.938747 0.100098 0.387497 0.651348 0.387497 1.3251C0.387497 1.99885 0.938747 2.5501 1.6125 2.5501C2.28625 2.5501 2.8375 1.99885 2.8375 1.3251C2.8375 0.651348 2.28625 0.100098 1.6125 0.100098ZM8.9625 0.100098C8.28875 0.100098 7.7375 0.651348 7.7375 1.3251C7.7375 1.99885 8.28875 2.5501 8.9625 2.5501C9.63625 2.5501 10.1875 1.99885 10.1875 1.3251C10.1875 0.651348 9.63625 0.100098 8.9625 0.100098ZM5.2875 0.100098C4.61375 0.100098 4.0625 0.651348 4.0625 1.3251C4.0625 1.99885 4.61375 2.5501 5.2875 2.5501C5.96125 2.5501 6.5125 1.99885 6.5125 1.3251C6.5125 0.651348 5.96125 0.100098 5.2875 0.100098Z" fill="#393939"/>
</svg>
