<svg width="13" height="13" viewBox="0 0 13 13" fill="none" xmlns="http://www.w3.org/2000/svg">
<path d="M6.14981 12.9C2.76697 12.9 0.0248108 10.1579 0.0248108 6.77502C0.0248108 3.39219 2.76697 0.650024 6.14981 0.650024C9.53265 0.650024 12.2748 3.39219 12.2748 6.77502C12.2748 10.1579 9.53265 12.9 6.14981 12.9ZM6.14981 11.675C7.44937 11.675 8.69571 11.1588 9.61463 10.2398C10.5336 9.32092 11.0498 8.07459 11.0498 6.77502C11.0498 5.47546 10.5336 4.22913 9.61463 3.3102C8.69571 2.39127 7.44937 1.87502 6.14981 1.87502C4.85025 1.87502 3.60392 2.39127 2.68499 3.3102C1.76606 4.22913 1.24981 5.47546 1.24981 6.77502C1.24981 8.07459 1.76606 9.32092 2.68499 10.2398C3.60392 11.1588 4.85025 11.675 6.14981 11.675ZM6.14981 3.74315L9.18169 6.77502L6.14981 9.8069L3.11794 6.77502L6.14981 3.74315ZM6.14981 5.47591L4.8507 6.77502L6.14981 8.07414L7.44892 6.77502L6.14981 5.47591Z" fill="white"/>
</svg>
