<svg width="13" height="13" viewBox="0 0 13 13" fill="none" xmlns="http://www.w3.org/2000/svg">
<path d="M9.21231 1.36257H11.6623C11.8248 1.36257 11.9805 1.4271 12.0954 1.54197C12.2103 1.65684 12.2748 1.81263 12.2748 1.97507V11.7751C12.2748 11.9375 12.2103 12.0933 12.0954 12.2082C11.9805 12.323 11.8248 12.3876 11.6623 12.3876H0.637311C0.474866 12.3876 0.319074 12.323 0.204208 12.2082C0.0893418 12.0933 0.0248108 11.9375 0.0248108 11.7751V1.97507C0.0248108 1.81263 0.0893418 1.65684 0.204208 1.54197C0.319074 1.4271 0.474866 1.36257 0.637311 1.36257H3.08731V0.137573H4.31231V1.36257H7.98731V0.137573H9.21231V1.36257ZM1.24981 5.03757V11.1626H11.0498V5.03757H1.24981ZM2.47481 6.26257H3.69981V7.48757H2.47481V6.26257ZM5.53731 6.26257H6.76231V7.48757H5.53731V6.26257ZM8.59981 6.26257H9.82481V7.48757H8.59981V6.26257Z" fill="white"/>
</svg>
